<?xml version="1.0" standalone="no"?>
<!DOCTYPE svg PUBLIC "-//W3C//DTD SVG 20010904//EN"
 "http://www.w3.org/TR/2001/REC-SVG-20010904/DTD/svg10.dtd">
<svg version="1.0" xmlns="http://www.w3.org/2000/svg"
 width="500.000000pt" height="500.000000pt" viewBox="0 0 500.000000 500.000000"
 preserveAspectRatio="xMidYMid meet">

<g transform="translate(0.000000,500.000000) scale(0.100000,-0.100000)"
fill="#000000" stroke="none">
<path d="M2280 4489 c-336 -34 -699 -180 -988 -396 -100 -75 -268 -237 -345
-333 -285 -354 -447 -810 -447 -1260 0 -450 162 -906 447 -1260 77 -96 245
-258 345 -333 665 -499 1559 -542 2256 -109 181 112 379 286 505 442 489 606
584 1441 243 2135 -111 225 -230 390 -408 560 -433 417 -1006 614 -1608 554z
m550 -38 c405 -71 743 -241 1032 -520 328 -316 516 -672 594 -1126 25 -143 25
-462 0 -609 -53 -321 -179 -621 -367 -876 -80 -109 -300 -329 -409 -409 -250
-185 -537 -308 -846 -362 -185 -33 -483 -33 -668 0 -308 54 -596 177 -846 361
-110 81 -329 301 -413 415 -189 256 -322 582 -369 901 -19 129 -16 454 6 579
54 318 170 600 352 857 81 115 336 368 451 448 298 208 614 325 988 364 95 10
384 -3 495 -23z"/>
<path d="M2439 4396 c0 -6 -6 -80 -12 -164 -7 -84 -10 -155 -8 -158 2 -2 19
-4 36 -4 30 0 33 3 39 38 3 20 6 49 6 63 0 25 1 25 51 19 59 -8 69 -19 69 -81
0 -40 3 -48 23 -53 52 -14 57 -10 57 48 0 44 -5 60 -26 85 -19 23 -22 31 -11
31 23 0 57 49 57 82 0 19 -10 40 -28 58 -29 29 -29 29 -209 44 -27 2 -43 -1
-44 -8z m182 -75 c21 -16 22 -22 11 -45 -10 -23 -17 -26 -67 -26 l-55 0 0 45
0 45 44 0 c28 0 52 -7 67 -19z"/>
<path d="M2070 4363 c-63 -13 -117 -27 -120 -29 -5 -5 55 -312 62 -320 5 -4
249 43 255 50 6 6 -8 56 -16 56 -3 0 -43 -8 -88 -17 -45 -9 -85 -15 -87 -12
-3 3 -7 20 -8 39 l-3 35 75 15 c64 14 75 19 78 38 5 31 -14 35 -97 17 -41 -8
-75 -14 -77 -13 -1 2 -4 18 -6 37 l-3 35 83 17 c45 9 85 19 88 22 8 8 -4 57
-14 56 -4 0 -59 -12 -122 -26z"/>
<path d="M2801 4301 c-41 -137 -72 -253 -69 -256 2 -1 58 -18 126 -38 84 -24
125 -31 127 -23 15 45 12 49 -74 72 -46 13 -86 25 -88 28 -4 4 15 76 20 76 1
0 34 -9 72 -20 87 -25 91 -25 98 2 8 27 4 30 -84 53 -71 18 -71 18 -65 48 3
17 9 33 12 36 3 3 44 -5 91 -17 47 -13 87 -22 88 -20 2 2 6 14 10 28 6 25 4
27 -119 62 l-126 35 -19 -66z"/>
<path d="M1720 4253 c-8 -3 -47 -21 -87 -39 l-72 -32 66 -149 c36 -81 67 -150
69 -152 10 -11 178 76 204 106 58 65 48 158 -25 230 -39 39 -47 43 -91 42 -27
0 -56 -3 -64 -6z m75 -65 c33 -15 65 -76 65 -122 0 -25 -7 -40 -25 -54 -35
-28 -85 -47 -94 -36 -19 20 -81 178 -74 185 8 8 80 37 95 38 4 1 19 -4 33 -11z"/>
<path d="M3136 4180 c-50 -44 -76 -98 -76 -158 0 -65 30 -108 99 -144 74 -39
129 -38 176 3 19 17 35 34 35 38 0 3 -14 14 -31 24 -30 16 -32 16 -56 -3 -42
-33 -100 -21 -140 30 -28 35 3 122 58 163 52 38 128 -3 138 -72 5 -32 13 -46
33 -59 33 -20 39 -15 45 40 8 86 -72 159 -182 166 -58 4 -64 2 -99 -28z"/>
<path d="M1338 4029 c-21 -17 -38 -35 -38 -41 0 -5 23 -81 51 -169 l51 -159
30 21 c29 21 31 31 13 81 -3 8 20 31 56 57 l60 44 33 -18 c32 -17 34 -17 59 1
15 10 26 21 26 24 1 9 -278 190 -291 190 -7 -1 -30 -14 -50 -31z m107 -85 c30
-20 55 -40 55 -44 0 -8 -64 -60 -73 -60 -5 0 -47 118 -47 132 0 13 8 10 65
-28z"/>
<path d="M3514 4019 c-19 -21 -18 -21 4 -40 29 -23 34 -15 -99 -173 -5 -5 -19
-2 -34 8 -25 17 -27 17 -41 -1 -7 -10 -14 -21 -14 -25 0 -4 32 -34 72 -68 72
-60 72 -60 92 -40 20 19 20 20 -2 43 l-23 24 67 81 67 81 25 -20 c14 -10 26
-18 26 -17 1 2 9 12 19 24 17 21 16 22 -57 82 -41 34 -76 62 -79 62 -2 0 -12
-9 -23 -21z"/>
<path d="M1110 3835 c-28 -30 -28 -31 91 -127 49 -40 88 -73 86 -74 -1 -1 -64
15 -141 36 l-138 39 -27 -31 c-36 -43 -54 -69 -50 -72 85 -72 250 -206 253
-206 3 0 14 13 25 28 l20 29 -88 71 c-81 66 -136 118 -103 98 7 -4 70 -23 139
-41 139 -37 133 -38 183 25 l30 37 -107 89 c-167 139 -147 127 -173 99z"/>
<path d="M3655 3764 c-55 -47 -111 -96 -125 -109 l-25 -25 26 -26 26 -25 42
35 43 36 46 -51 c25 -28 57 -55 70 -60 57 -22 142 41 142 105 0 17 -10 46 -22
63 -36 49 -112 142 -118 142 -3 0 -50 -38 -105 -85z m145 -54 c34 -43 34 -72
-1 -91 -28 -14 -50 -5 -82 36 l-28 35 33 30 c18 16 36 30 40 30 3 0 21 -18 38
-40z"/>
<path d="M2285 3765 c-94 -14 -267 -71 -357 -116 -298 -150 -537 -425 -642
-739 -19 -58 -42 -145 -51 -194 -19 -114 -19 -318 0 -432 80 -455 403 -839
835 -992 162 -57 228 -67 430 -67 202 0 268 10 430 67 234 83 442 236 593 437
171 228 257 485 257 771 0 430 -204 816 -561 1060 -155 106 -358 186 -532 210
-103 13 -302 11 -402 -5z m385 -15 c789 -122 1271 -894 1026 -1644 -62 -189
-153 -339 -288 -477 -131 -133 -249 -216 -409 -284 -613 -264 -1331 -2 -1628
593 -47 94 -98 254 -117 367 -19 121 -14 339 11 455 114 516 528 905 1055 989
77 12 273 13 350 1z"/>
<path d="M1889 3264 c-99 -34 -192 -135 -220 -239 -36 -133 31 -303 146 -371
l44 -25 -6 -67 c-6 -76 10 -267 32 -375 22 -108 81 -282 128 -377 l42 -85 331
-3 c270 -2 333 0 343 11 9 12 19 12 64 0 117 -32 246 6 331 97 59 63 87 124
89 198 l2 57 -130 5 -130 5 91 47 c136 70 184 140 171 250 -15 123 -99 199
-227 204 l-65 3 -7 73 c-4 40 -10 83 -13 96 l-5 22 -296 0 c-278 0 -296 1
-289 18 34 83 32 198 -6 277 -30 64 -100 134 -164 165 -64 31 -188 38 -256 14z
m237 -62 c62 -32 97 -65 129 -124 27 -47 30 -62 30 -138 0 -102 -20 -150 -61
-150 -14 0 -24 3 -22 8 34 65 40 91 36 158 -3 61 -8 80 -33 116 -17 23 -50 56
-74 73 -40 28 -49 30 -131 30 -82 0 -91 -2 -131 -30 -24 -17 -57 -50 -74 -73
-25 -37 -30 -55 -33 -116 -5 -85 19 -147 74 -196 34 -30 46 -70 20 -70 -8 0
-35 20 -60 45 -151 152 -93 405 111 481 54 20 167 13 219 -14z m-146 -132 c0
-33 -4 -60 -8 -60 -4 0 -27 20 -50 43 l-43 44 33 16 c60 30 68 25 68 -43z
m121 36 c17 -11 15 -16 -26 -56 l-45 -44 0 63 0 63 27 -7 c14 -3 34 -12 44
-19z m-227 -134 c-31 -2 -59 -1 -62 2 -3 3 3 24 13 46 l18 41 44 -43 44 -43
-57 -3z m312 21 l6 -28 -62 3 -62 4 43 44 c40 41 43 42 56 24 7 -10 16 -31 19
-47z m-256 -81 c0 -4 -20 -27 -44 -51 l-43 -42 -17 34 c-28 60 -24 67 44 67
33 0 60 -4 60 -8z m260 -8 c0 -9 -7 -32 -16 -51 l-17 -34 -43 42 c-24 24 -44
47 -44 51 0 4 27 8 60 8 48 0 60 -3 60 -16z m-214 -100 c-3 -9 -21 -14 -48
-14 l-42 0 44 46 45 45 3 -31 c2 -18 1 -38 -2 -46z m124 -6 c0 -4 -16 -8 -35
-8 -34 0 -35 1 -35 42 l0 42 35 -34 c19 -19 35 -38 35 -42z m764 -95 c3 -21 8
-68 11 -105 l7 -68 -201 0 -201 0 6 40 c6 37 4 40 -22 50 -57 22 -162 -7 -240
-66 -29 -23 -39 -24 -178 -24 l-148 0 6 38 c3 20 8 67 11 105 l7 67 468 0 468
0 6 -37z m-434 -148 c0 -25 -1 -25 -77 -25 -78 1 -78 1 -48 17 26 15 75 28
113 32 6 0 12 -10 12 -24z m655 -35 c76 -47 104 -150 63 -230 -19 -38 -35 -52
-99 -86 -42 -22 -98 -53 -124 -69 l-48 -27 7 28 c18 71 36 195 42 293 4 58 12
110 18 114 18 13 105 -1 141 -23z m-941 -78 c-8 -22 -16 -58 -17 -82 -2 -39 1
-44 27 -53 44 -15 155 8 211 44 27 17 59 50 77 79 l31 50 204 0 204 0 -6 -72
c-8 -86 -31 -228 -45 -280 l-11 -38 -122 0 -122 1 35 17 c54 28 88 52 94 68 9
23 -60 90 -126 124 -74 36 -133 39 -211 10 -30 -11 -71 -35 -92 -53 l-39 -34
22 -30 c48 -68 169 -121 250 -111 l37 5 0 -61 c1 -78 32 -144 98 -208 l48 -48
-300 0 -301 0 -34 68 c-43 86 -100 253 -121 358 -17 87 -36 265 -28 277 2 4
60 7 129 7 l124 0 -16 -38z m248 6 c-23 -38 -106 -83 -169 -92 -41 -6 -43 -5
-43 19 0 14 9 44 20 65 l20 40 96 0 96 0 -20 -32z m139 -183 c46 -16 109 -60
109 -75 0 -15 -76 -50 -123 -56 -23 -3 -62 -1 -86 6 -51 14 -121 57 -121 75 0
11 52 41 100 58 29 10 78 7 121 -8z m115 -275 c50 -171 276 -227 403 -99 35
35 70 101 71 132 0 11 8 17 25 17 22 0 24 -3 18 -32 -16 -83 -77 -164 -155
-204 -143 -73 -315 -16 -387 127 -38 75 -41 112 -9 107 15 -2 24 -15 34 -48z
m124 5 c-49 -50 -64 -48 -76 13 l-6 32 63 0 63 0 -44 -45z m300 35 c0 -19 -29
-80 -37 -80 -5 0 -29 20 -53 45 l-44 45 67 0 c39 0 67 -4 67 -10z m-223 -157
c-6 -5 -87 27 -87 35 0 4 19 26 43 50 l42 43 3 -62 c2 -34 1 -63 -1 -66z m143
34 c0 -8 -61 -37 -80 -37 -6 0 -10 28 -10 67 l0 67 45 -44 c25 -24 45 -48 45
-53z"/>
<path d="M3844 3483 c-76 -41 -141 -77 -143 -79 -2 -1 25 -54 59 -118 60 -110
63 -114 86 -104 13 6 24 16 24 21 0 5 -18 43 -41 84 -23 41 -39 75 -38 77 23
15 59 36 63 36 3 0 22 -30 42 -67 21 -38 39 -70 41 -72 1 -2 14 1 29 7 l25 12
-41 75 -41 74 25 16 c14 9 30 15 36 13 6 -2 28 -34 48 -72 21 -38 42 -71 48
-73 5 -2 18 3 28 10 18 13 16 19 -38 120 -32 59 -61 109 -65 111 -4 3 -70 -29
-147 -71z"/>
<path d="M887 3465 c-48 -16 -63 -29 -91 -79 -44 -77 -40 -152 12 -209 49 -55
157 -76 220 -43 80 41 119 184 70 255 -24 36 -91 75 -143 84 -16 3 -47 -1 -68
-8z m100 -84 c77 -36 93 -105 38 -165 -29 -31 -63 -33 -121 -7 -70 32 -90 81
-59 141 28 53 71 63 142 31z"/>
<path d="M674 3083 c-4 -15 -8 -46 -8 -68 l-1 -40 107 -55 c59 -30 108 -58
108 -62 0 -5 -17 -8 -37 -9 -21 0 -78 -6 -128 -12 l-89 -12 -12 -60 c-7 -35
-8 -62 -3 -66 5 -3 77 -18 160 -33 162 -30 168 -30 169 21 0 25 3 24 -149 53
-57 11 -106 21 -108 24 -2 2 55 9 126 16 71 7 135 16 141 20 17 11 30 79 17
88 -7 4 -63 35 -127 69 -63 34 -110 62 -105 62 6 0 64 -11 130 -24 66 -12 123
-20 126 -17 4 4 9 21 12 38 l6 31 -152 28 c-84 15 -157 30 -164 32 -7 3 -15
-8 -19 -24z"/>
<path d="M4022 3067 l-143 -32 6 -35 c4 -19 8 -36 10 -38 1 -2 31 4 66 12 35
8 67 12 70 8 3 -4 12 -36 19 -70 15 -73 12 -77 -56 -88 -22 -3 -46 -9 -52 -13
-16 -10 -4 -71 14 -71 24 0 299 62 307 69 4 4 4 22 1 40 -6 31 -9 32 -38 26
-17 -4 -47 -9 -68 -12 l-36 -5 -12 58 c-6 33 -12 65 -13 73 -1 10 18 19 61 29
58 12 63 16 58 35 -3 12 -6 28 -6 35 0 17 -25 14 -188 -21z"/>
<path d="M4015 2696 c-52 -23 -69 -51 -73 -122 -5 -73 8 -115 46 -144 22 -18
41 -20 158 -20 l134 0 0 34 0 34 -126 4 c-142 3 -154 10 -154 79 0 60 22 69
162 69 l118 0 0 40 0 40 -117 0 c-75 -1 -129 -6 -148 -14z"/>
<path d="M883 2515 l5 -95 -38 0 c-44 0 -50 12 -50 101 0 31 -2 58 -5 61 -3 3
-17 3 -31 0 l-26 -5 7 -83 7 -84 -41 0 -41 0 0 90 0 90 -33 0 -34 0 4 -57 c2
-32 6 -91 9 -132 l6 -74 96 7 c54 3 122 6 152 6 85 0 84 -1 75 144 l-7 126
-30 0 -31 0 6 -95z"/>
<path d="M3936 2363 c-3 -10 -15 -60 -25 -112 -24 -113 -15 -151 39 -170 47
-16 58 -14 85 13 l24 24 9 -27 c22 -63 116 -62 145 2 16 36 53 205 46 212 -3
2 -68 18 -144 35 -77 17 -148 33 -157 36 -10 3 -19 -2 -22 -13z m117 -90 c12
-7 -1 -73 -19 -100 -16 -25 -43 -30 -62 -11 -15 15 -15 41 -1 91 10 36 12 38
42 31 18 -3 36 -9 40 -11z m136 -29 c2 -2 -2 -27 -10 -56 -12 -44 -18 -54 -38
-56 -38 -6 -50 19 -38 78 l10 50 36 -6 c20 -4 38 -8 40 -10z"/>
<path d="M911 2321 c-12 -7 -11 -20 4 -80 9 -40 16 -73 14 -75 -2 -1 -60 -16
-129 -32 l-125 -30 3 -34 c1 -19 4 -36 7 -38 3 -3 315 67 323 73 1 1 -10 52
-25 114 -28 112 -36 125 -72 102z"/>
<path d="M3720 1431 c0 -5 18 -24 40 -41 41 -32 49 -57 28 -78 -20 -20 -38
-14 -79 23 -57 51 -72 42 -17 -10 51 -49 78 -55 108 -25 29 29 25 49 -22 97
-41 42 -58 52 -58 34z"/>
<path d="M1205 1395 c-31 -30 -33 -78 -6 -102 52 -48 51 -47 79 -20 25 26 25
27 7 47 -10 11 -23 20 -28 20 -6 0 -3 -8 6 -18 20 -22 13 -32 -19 -32 -14 0
-30 10 -40 26 -16 24 -16 27 3 52 35 47 103 38 103 -14 0 -12 5 -26 10 -29 21
-13 9 52 -13 73 -31 29 -72 28 -102 -3z"/>
<path d="M3489 1222 c-49 -41 -11 -132 56 -132 38 0 75 35 75 72 0 14 -11 37
-25 52 -29 31 -72 34 -106 8z m95 -24 c24 -33 20 -65 -10 -85 -24 -15 -29 -15
-53 -2 -14 8 -30 27 -35 42 -20 55 64 94 98 45z"/>
<path d="M1416 1204 c-34 -34 -34 -77 -1 -109 27 -28 46 -31 78 -13 54 28 64
93 21 127 -36 28 -66 26 -98 -5z m85 -4 c28 -15 26 -74 -3 -94 -60 -43 -116
20 -72 82 16 24 44 28 75 12z"/>
<path d="M3320 1062 c0 -23 -3 -42 -6 -42 -3 0 -17 9 -31 20 -14 11 -30 20
-34 20 -20 0 -6 -17 36 -43 24 -16 47 -37 50 -48 4 -10 11 -19 17 -19 6 0 7 7
2 18 -4 9 -9 40 -12 67 -5 64 -22 84 -22 27z"/>
<path d="M1668 1060 c-9 -6 -22 -26 -28 -45 -10 -30 -9 -40 4 -60 31 -48 105
-45 131 5 21 40 19 57 -10 85 -25 26 -67 32 -97 15z m90 -28 c19 -24 14 -50
-13 -78 -27 -27 -59 -26 -82 4 -20 24 -15 50 12 78 27 27 59 26 83 -4z"/>
<path d="M1911 909 c-11 -35 -21 -66 -21 -71 0 -4 18 -13 40 -19 36 -11 44
-10 68 8 20 15 28 30 30 60 3 45 -16 69 -65 79 -30 6 -31 5 -52 -57z m73 35
c30 -11 38 -41 22 -79 -12 -28 -20 -35 -43 -35 -49 0 -54 10 -36 68 17 51 25
58 57 46z"/>
<path d="M2878 923 c-22 -6 -22 -3 -1 -85 18 -70 40 -96 29 -33 -8 43 6 46 46
8 34 -33 46 -26 18 10 -17 21 -19 31 -11 46 14 25 14 27 -5 45 -15 16 -41 18
-76 9z m70 -35 c2 -11 -6 -22 -22 -30 -30 -13 -32 -12 -41 25 -7 27 -6 28 26
25 23 -2 35 -9 37 -20z"/>
<path d="M2623 878 c-47 -23 -53 -103 -10 -133 50 -35 117 1 117 62 0 57 -58
96 -107 71z m69 -25 c20 -18 24 -73 6 -91 -20 -20 -65 -14 -82 10 -9 12 -16
29 -16 38 0 26 30 60 52 60 12 0 30 -7 40 -17z"/>
<path d="M2356 849 c-9 -48 -7 -119 4 -119 6 0 10 15 10 34 0 32 3 35 33 39
l32 4 -33 1 c-30 2 -33 5 -30 30 3 25 6 27 41 24 22 -2 37 1 37 7 0 6 -19 11
-44 11 -41 0 -44 -2 -50 -31z"/>
</g>
</svg>
